<svg xmlns="http://www.w3.org/2000/svg" width="683" height="200" fill="none"><path fill="#14181C" d="M105.882 0h82.353v5.882h-82.353V0Zm117.647 0h94.118v5.882h-94.118V0Zm117.647 0h82.353v5.882h-82.353V0Zm100 0h100v5.882h-100V0Zm135.295 0h94.117v5.882h-94.117V0ZM94.118 5.882H200v5.883H94.118V5.882Zm117.647 0h111.764v5.883H211.765V5.882Zm117.647 0h223.529v5.883H329.412V5.882Zm235.294 0h111.765v5.883H564.706V5.882Zm-476.47 5.883h23.529v5.882h-23.53v-5.882Zm94.117 0h47.059v5.882h-47.059v-5.882Zm129.412 0h35.294v5.882h-35.294v-5.882Zm105.882 0h35.294v5.882h-35.294v-5.882Zm117.647 0h47.059v5.882h-47.059v-5.882Zm129.412 0h17.647v5.882h-17.647v-5.882Zm-576.47 5.882H100v5.882H88.235v-5.882Zm105.882 0h23.529v11.765h-23.529V17.647Zm123.529 0h17.647v11.765h-17.647V17.647Zm111.765 0h17.647v11.765h-17.647V17.647Zm117.647 0h23.529v11.765h-23.529V17.647Zm123.529 0h11.765v35.294h-11.765V17.647ZM82.353 23.53H100v5.883H82.353v-5.883Zm0 5.883h11.765v76.47H82.353v-76.47Zm117.647 0h11.765v23.53H200v-23.53Zm117.647 0h11.765v23.53h-11.765v-23.53Zm117.647 0h11.765v141.176h-11.765V29.412Zm117.647 0h11.765v64.706h-11.765V29.412Zm-358.823 23.53h17.647v5.882h-17.647V52.94Zm117.647 0h17.647v5.882h-17.647V52.94Zm352.941 0h17.647v5.882h-17.647V52.94Zm-517.647 5.882h64.706v5.882h-64.706v-5.883Zm111.765 0h70.588v11.764h-70.588V58.824Zm117.647 0h11.764v11.764h-11.764V58.824Zm117.647 0h11.764v11.764h-11.764V58.824Zm117.647 0h70.588v5.882h-70.588v-5.883Zm-470.589 5.882h70.589v5.882h-70.589v-5.882Zm470.589 0h64.706v5.882h-64.706v-5.882Zm-470.589 5.882h17.648v5.883h-17.648v-5.883Zm52.942 0h17.647v5.883h-17.647v-5.883Zm117.647 0h17.647v5.883h-17.647v-5.883Zm341.176 0h23.53v5.883h-23.53v-5.883Zm-511.765 5.883h11.765v52.941h-11.765V76.471Zm58.824 0h11.765v82.353H200V76.471Zm117.647 0h11.765v35.294h-11.765V76.471Zm347.059 0h17.647v11.764h-17.647V76.471Zm5.882 11.764h11.765v70.589h-11.765V88.235Zm-123.529 5.883h17.647V100h-17.647v-5.882ZM23.529 100h47.06v5.882h-47.06V100Zm517.647 0h29.412v5.882h-29.412V100Zm-529.411 5.882h82.353v5.883H11.765v-5.883Zm535.294 0h23.529v5.883h-23.529v-5.883ZM5.882 111.765h23.53v5.882H5.882v-5.882Zm58.824 0h29.412v5.882H64.706v-5.882Zm247.059 0h17.647v5.882h-17.647v-5.882Zm241.176 0h29.412v5.882h-29.412v-5.882ZM5.882 117.647h11.765v5.882H5.882v-5.882Zm70.589 0h17.647v11.765H76.47v-11.765Zm182.353 0h70.588v11.765h-70.588v-11.765Zm117.647 0h11.764v52.941h-11.764v-52.941Zm117.647 0h11.764v52.941h-11.764v-52.941Zm58.823 0h70.588v11.765h-70.588v-11.765ZM0 123.529h17.647v5.883H0v-5.883Zm0 5.883h11.765v41.176H0v-41.176Zm82.353 0h11.765v29.412H82.353v-29.412Zm229.412 0h17.647v5.882h-17.647v-5.882Zm241.176 0h17.647v5.882h-17.647v-5.882Zm-235.294 5.882h11.765v35.294h-11.765v-35.294Zm235.294 0h11.765v35.294h-11.765v-35.294ZM23.529 152.941h11.765v11.765H23.53v-11.765Zm35.294 0h11.765v11.765H58.824v-11.765Zm23.53 5.883H100v11.764H82.353v-11.764Zm111.765 0h23.529v11.764h-23.529v-11.764Zm470.588 0h17.647v11.764h-17.647v-11.764ZM0 170.588h17.647v5.883H0v-5.883Zm76.47 0h35.295v5.883H76.471v-5.883Zm105.883 0h47.059v5.883h-47.059v-5.883Zm129.412 0h23.529v5.883h-23.529v-5.883Zm58.823 0h23.53v5.883h-23.53v-5.883Zm58.824 0h23.529v5.883h-23.529v-5.883Zm58.823 0h23.53v5.883h-23.53v-5.883Zm58.824 0h23.529v5.883h-23.529v-5.883Zm105.882 0h29.412v5.883h-29.412v-5.883ZM0 176.471h676.471v11.764H0v-11.764Zm5.882 11.764H200v5.883H5.882v-5.883Zm205.883 0h458.823v5.883H211.765v-5.883Zm-200 5.883h70.588V200H11.765v-5.882Zm94.117 0h82.353V200h-82.353v-5.882Zm117.647 0h94.118V200h-94.118v-5.882Zm105.883 0h105.882V200H329.412v-5.882Zm117.647 0h105.882V200H447.059v-5.882Zm117.647 0h94.118V200h-94.118v-5.882Z"/><path fill="#D8FF00" d="M111.764 11.765h70.588v5.882h-70.588v-5.882Zm117.647 0h82.353v5.882h-82.353v-5.882Zm117.647 0h70.589v5.882h-70.589v-5.882Zm105.883 0h82.353v5.882h-82.353v-5.882Zm129.411 0h82.353v5.882h-82.353v-5.882ZM100 17.647h94.117v11.765H100V17.647Zm117.647 0h100v11.765h-100V17.647Zm117.647 0h94.117v11.765h-94.117V17.647Zm111.764 0h100v11.765h-100V17.647Zm123.53 0h100v11.765h-100V17.647ZM94.118 29.412H200v23.53H94.117v-23.53Zm117.646 0h105.883v23.53H211.764v-23.53Zm117.647 0h105.883v29.412H329.411V29.412Zm117.647 0h105.883v29.412H447.058V29.412Zm117.647 0h105.883v23.53H564.705v-23.53ZM94.117 52.942h100v5.882h-100V52.94Zm117.647 0h100v5.882h-100V52.94Zm352.941 0h100v5.882h-100V52.94ZM94.117 58.823h52.941v5.882h-52.94v-5.882Zm117.647 0h47.059v11.764h-47.059V58.824Zm117.647 0h47.059v11.764h-47.059V58.824Zm58.824 0h47.059v11.764h-47.059V58.824Zm58.823 0h47.059v11.764h-47.059V58.824Zm58.824 0h47.059v11.764h-47.059V58.824Zm58.823 0h47.059v11.764h-47.059V58.824ZM94.117 64.706h47.059v64.706H94.117V64.706Zm64.706 5.882h35.294v5.883h-35.294v-5.883Zm52.941 0h100v5.883h-100v-5.883Zm117.647 0h105.883v47.059H329.411V70.588Zm117.647 0h105.883v23.53H447.058v-23.53Zm117.647 0h88.236v5.883h-88.236v-5.883Zm-411.764 5.883H200v52.941h-47.059V76.471Zm58.823 0h105.883v35.294H211.764V76.471Zm352.941 0h100v11.764h-100V76.472Zm0 11.764h105.883V100H564.705V88.236Zm-117.647 5.883h100V100h-100v-5.882Zm0 5.882h94.118v5.883h-94.118V100Zm123.53 0h100v11.765h-100V100Zm-123.53 5.883h100v5.882h-100v-5.882Zm-235.294 5.882h100v5.882h-100v-5.882Zm235.294 0h105.883v5.882H447.058v-5.882Zm135.294 0h88.236v5.882h-88.236v-5.882Zm-370.588 5.882h47.059v11.765h-47.059v-11.765Zm117.647 0h47.059v52.941h-47.059v-52.941Zm58.824 0h47.059v52.941h-47.059v-52.941Zm58.823 0h47.059v52.941h-47.059v-52.941Zm58.824 0h47.059v52.941h-47.059v-52.941Zm117.647 0h47.059v11.765h-47.059v-11.765ZM94.117 129.412H200v29.412H94.117v-29.412Zm117.647 0h100v5.882h-100v-5.882Zm358.824 0h100v5.882h-100v-5.882Zm-358.824 5.882h105.883v23.53H211.764v-23.53Zm352.941 0h105.883v23.53H564.705v-23.53Zm-464.706 23.53h94.118v11.764H100v-11.764Zm117.648 0h100v11.764h-100v-11.764Zm347.058 0h100v11.764h-100v-11.764Zm-452.941 11.764h70.588v5.883h-70.588v-5.883Zm117.647 0h82.353v5.883h-82.353v-5.883Zm105.883 0h35.294v5.883h-35.294v-5.883Zm58.823 0h35.294v5.883h-35.294v-5.883Zm58.824 0h35.294v5.883h-35.294v-5.883Zm58.823 0h35.294v5.883h-35.294v-5.883Zm58.824 0h82.353v5.883h-82.353v-5.883Z"/><path fill="#fff" d="M29.412 111.765h35.294v5.882H29.412v-5.882Zm-11.765 5.882h58.824v11.765H17.647v-11.765Zm-5.882 11.765h70.588v23.529H11.765v-23.529Zm0 23.529h11.764v11.765H11.765v-11.765Zm23.53 0h23.529v11.765h-23.53v-11.765Zm35.293 0h11.765v11.765H70.588v-11.765Zm-58.823 11.765h70.588v5.882H11.765v-5.882Zm5.882 5.882h58.824v5.883H17.647v-5.883Z"/></svg>