<svg xmlns="http://www.w3.org/2000/svg" width="606" height="200" fill="none"><path fill="#1CE783" d="M371.347 200h48.278V0h-48.278v200Zm-84.767-57.022c0 7.022-5.894 12.921-12.912 12.921H245.6c-7.017 0-12.912-5.899-12.912-12.921V62.36H184.41v84.55c0 34.551 22.175 52.809 54.734 52.809h47.155c30.034 0 48.278-21.629 48.278-52.809V62.36h-48.278c.281 0 .281 78.089.281 80.618ZM558.003 62.36v80.618c0 7.022-5.895 12.921-12.912 12.921h-28.068c-7.017 0-12.912-5.899-12.912-12.921V62.36h-48.278v84.55c0 34.551 22.174 52.809 54.734 52.809h47.155c30.033 0 48.278-21.629 48.278-52.809V62.36h-47.997Zm-462.57 0H64.558c-10.947 0-16.28 2.808-16.28 2.808V0H0v199.719h47.997v-80.337c0-7.022 5.895-12.921 12.912-12.921h28.068c7.017 0 12.912 5.899 12.912 12.921V200h48.278v-87.079c0-36.517-24.42-50.561-54.734-50.561Z"/></svg>