<svg xmlns="http://www.w3.org/2000/svg" width="49" height="24" fill="none"><path fill="#000" d="M47.955 10.864a.303.303 0 0 1 .28-.084c.13.019.252.065.364.14a.685.685 0 0 1 .252.308c.056.112.046.233-.028.364a10.527 10.527 0 0 1-1.036 2.184c-.43.71-.924 1.381-1.484 2.016a17.163 17.163 0 0 1-1.764 1.736 11.71 11.71 0 0 1-1.82 1.288c-.28.15-.58.205-.896.168a3.595 3.595 0 0 1-.952-.252 5.558 5.558 0 0 1-.868-.504 5.14 5.14 0 0 1-.644-.532c-.355-.373-.551-.868-.588-1.484-.038-.635.037-1.316.224-2.044.168-.728.429-1.484.784-2.268.354-.784.746-1.521 1.176-2.212.448-.69.914-1.297 1.4-1.82.485-.523.942-.905 1.372-1.148a1.64 1.64 0 0 1 .728-.196c.224-.019.457.019.7.112.242.075.485.196.728.364.26.15.55.317.868.504.448.28.653.635.616 1.064 0 .205-.084.57-.252 1.092a9.057 9.057 0 0 1-.672 1.652 7.925 7.925 0 0 1-1.064 1.596c-.411.485-.878.812-1.4.98-.374.093-.7.121-.98.084a3.419 3.419 0 0 1-.924-.28 5.581 5.581 0 0 0-.308.84 7.137 7.137 0 0 0-.252 1.092c-.056.373-.075.71-.056 1.008.018.28.13.439.336.476.298.056.718-.103 1.26-.476.56-.373 1.138-.859 1.736-1.456a22.251 22.251 0 0 0 1.764-2.072 13.68 13.68 0 0 0 1.4-2.24Zm-2.8-2.072c-.187.13-.43.383-.728.756-.28.355-.56.737-.84 1.148-.262.41-.495.793-.7 1.148-.187.355-.28.579-.28.672.336.056.644-.047.924-.308.298-.261.56-.588.784-.98.242-.41.429-.84.56-1.288.149-.448.242-.83.28-1.148Z"/><path fill="#000" d="M39.227 11.256c.056-.13.15-.187.28-.168.15.019.29.065.42.14.15.075.27.168.364.28.093.093.13.168.112.224a22.753 22.753 0 0 1-.98 1.792 20.675 20.675 0 0 1-1.232 1.904c-.43.597-.877 1.139-1.344 1.624-.448.485-.868.83-1.26 1.036-.261.13-.56.187-.896.168a4.391 4.391 0 0 1-.98-.224 3.008 3.008 0 0 1-.84-.448c-.243-.187-.383-.373-.42-.56-.075-.317-.075-.747 0-1.288s.177-1.083.308-1.624c.15-.541.29-1.027.42-1.456.15-.448.252-.737.308-.868-.373.317-.793.775-1.26 1.372a42.141 42.141 0 0 0-1.4 1.904 49.517 49.517 0 0 0-1.26 1.988 26.272 26.272 0 0 0-.868 1.624c-.093.168-.28.261-.56.28-.28 0-.56-.047-.84-.14a2.27 2.27 0 0 1-.728-.392c-.224-.168-.308-.336-.252-.504.112-.448.28-1.036.504-1.764.224-.747.485-1.55.784-2.408.299-.877.635-1.773 1.008-2.688.373-.915.784-1.764 1.232-2.548.13-.261.336-.392.616-.392.299 0 .588.065.868.196.28.13.504.299.672.504.187.205.252.383.196.532-.187.392-.392.793-.616 1.204-.205.392-.41.765-.616 1.12-.187.336-.355.635-.504.896-.13.261-.205.439-.224.532.299-.43.616-.859.952-1.288.355-.43.7-.83 1.036-1.204.355-.373.71-.71 1.064-1.008.355-.299.7-.55 1.036-.756.224-.13.495-.168.812-.112.336.056.644.168.924.336s.495.373.644.616c.168.224.205.448.112.672-.15.373-.345.84-.588 1.4-.243.541-.476 1.12-.7 1.736-.224.597-.42 1.176-.588 1.736-.168.56-.252 1.036-.252 1.428a6.863 6.863 0 0 0 1.148-.868c.41-.373.812-.803 1.204-1.288.41-.485.803-1.008 1.176-1.568.373-.56.71-1.12 1.008-1.68ZM22.573 6.356c1.139.541 2.026 1.157 2.66 1.848.616.728.812 1.783.588 3.164-.074.336-.186.756-.336 1.26-.149.485-.336 1.055-.56 1.708a55.2 55.2 0 0 0-.644 1.876c-.186.616-.382 1.25-.588 1.904-.168.653-.298 1.26-.392 1.82a9.081 9.081 0 0 0-.14 1.54c0 .877.355 1.363 1.064 1.456-.261.41-.7.541-1.316.392-.653-.15-1.222-.55-1.708-1.204-.522-.616-.7-1.484-.532-2.604.168-.71.374-1.465.616-2.268.262-.821.57-1.68.924-2.576.206-.56.383-1.073.532-1.54.15-.467.28-.887.392-1.26.299-1.008.355-1.848.168-2.52-.205-.635-.765-1.139-1.68-1.512-.037 1.81-.597 3.901-1.68 6.272-1.138 2.408-2.389 4.06-3.752 4.956-.354.168-.849.196-1.484.084a5.82 5.82 0 0 1-1.652-.784c-.504-.336-.802-.747-.896-1.232-.112-.71-.018-1.643.28-2.8-.149.205-.317.42-.504.644-.168.224-.354.476-.56.756a24.175 24.175 0 0 1-2.604 3.08c-.242.205-.616.252-1.12.14a3.446 3.446 0 0 1-1.344-.644c-.392-.299-.588-.644-.588-1.036.094-.747.28-1.503.56-2.268.262-.784.607-1.587 1.036-2.408.822-1.587 1.774-2.837 2.856-3.752.56-.448 1.092-.607 1.596-.476.504.15.99.401 1.456.756.206.112.392.233.56.364l.112-.224c.056-.075.122-.159.196-.252l.336-.504c.131-.187.234-.308.308-.364.243-.243.56-.28.952-.112.374.112.71.327 1.008.644.28.28.346.57.196.868-1.157 1.96-1.857 3.63-2.1 5.012-.224 1.4-.205 2.221.056 2.464.336.224.85-.112 1.54-1.008.355-.41.691-.887 1.008-1.428.318-.541.635-1.139.952-1.792.318-.672.56-1.325.728-1.96.187-.635.327-1.25.42-1.848.075-1.195-.28-2.044-1.064-2.548-.261-.13-.336-.373-.224-.728.038-.168.103-.336.196-.504.094-.168.215-.327.364-.476.299-.373.588-.607.868-.7.336-.15.588-.093.756.168.094.093.168.187.224.28.056.075.103.159.14.252.168.28.364.532.588.756.112.112.271.243.476.392.206.13.458.29.756.476Zm-10.22 5.068c.038-.037.075-.177.112-.42 0-.187-.028-.355-.084-.504-.056-.187-.14-.29-.252-.308-.149-.019-.326.075-.532.28a11.634 11.634 0 0 0-2.128 3.192c-.317.597-.55 1.11-.7 1.54-.13.41-.214.747-.252 1.008.448-.41 1.074-1.12 1.876-2.128.392-.504.747-.98 1.064-1.428.336-.448.635-.859.896-1.232Z"/><path fill="#000" d="M9.448 3.444c.784.15 1.39.29 1.82.42.467.168.794.373.98.616.112.168.234.401.364.7l.112.448c.038.15.066.29.084.42 0 .28-.084.439-.252.476-.28-.373-.84-.672-1.68-.896-1.27-.28-2.23-.401-2.884-.364l-.448.672-.448.672a35.833 35.833 0 0 0-2.352 4.816 38.014 38.014 0 0 0-1.54 4.928c-.336 1.587-.438 2.865-.308 3.836.13 1.027.56 1.577 1.288 1.652-.28.243-.69.327-1.232.252-.485-.056-.99-.345-1.512-.868-.522-.485-.85-1.213-.98-2.184-.074-.728-.018-1.577.168-2.548.168-.99.458-2.11.868-3.36s.868-2.473 1.372-3.668a60.999 60.999 0 0 1 1.68-3.528c.038-.093.084-.177.14-.252a1.96 1.96 0 0 0 .14-.28c-.093 0-.214.01-.364.028a6.02 6.02 0 0 0-.448.084c-.168.037-.326.075-.476.112-.15.037-.298.084-.448.14a.94.94 0 0 0-.364.168 1.083 1.083 0 0 0-.196.14c-.112.187-.214.243-.308.168a1.262 1.262 0 0 1-.336-.364 1.096 1.096 0 0 0-.14-.252 1.96 1.96 0 0 1-.224-.532.867.867 0 0 0-.056-.168.593.593 0 0 1 .056-.56.51.51 0 0 1 .168-.224c.075-.056.159-.112.252-.168a9.46 9.46 0 0 1 1.904-.504 70.144 70.144 0 0 0 1.792-.224h.196c.075 0 .159-.01.252-.028A22.98 22.98 0 0 1 7.936.896c.187-.187.458-.233.812-.14.299.056.616.233.952.532.318.299.504.56.56.784.056.261.01.439-.14.532-.15.187-.28.355-.392.504-.112.13-.205.243-.28.336Z"/></svg>