<svg xmlns="http://www.w3.org/2000/svg" width="813" height="201" fill="none"><path fill="#ED1C24" d="M106.654 200.304C43.011 200.275.462 155.188.462 100.47.462 45.78 43.097.131 106.568.304h599.695C769.705.131 812.341 45.78 812.341 100.47c0 54.718-42.535 99.805-106.178 99.834H106.654Z"/><path fill="#fff" d="M106.841 24.888c-50.407.086-81.32 33.797-81.32 75.452 0 41.669 30.754 75.611 81.32 75.438h599.104c50.609.173 81.335-33.769 81.335-75.438 0-41.655-30.927-75.366-81.335-75.452H106.841Z"/><path fill="#ED1C24" d="M80.989 53.047h29.356l40.588 65.662-.015-65.662h29.097v94.168h-29.068l-40.79-65.662v65.662H80.988V53.047Zm257.27 9.69h28.347V75.41h15.326v9.315h-15.327l.029 62.49h-28.375l.014-62.49h-15.385v-9.286l15.385-.028-.014-12.675ZM196.222 84.594h28.318v62.634h-28.318V84.595Zm-.072-31.577h28.39v19.263h-28.39V53.018Zm496.257 27.323c-22.854 0-41.382 15.717-41.382 35.138 0 19.408 18.528 35.153 41.382 35.153 22.867 0 41.366-15.745 41.366-35.153 0-19.421-18.499-35.138-41.366-35.138Zm11.376 35.052s-.029 9.458-.029 13.265c0 9.978-5.883 14.087-11.578 14.087-5.681 0-11.607-4.109-11.607-14.087 0-3.807.014-13.51.014-13.51s.016-9.243.016-13.035c0-9.948 5.955-14.029 11.578-14.029 5.652 0 11.578 4.08 11.578 14.029 0 3.792-.014 10.814.029 13.309l-.001-.029Zm-89.727.202v-11.203c0-9.69-6.69-12.14-11.088-12.14-4.513 0-11.102 2.45-11.102 12.14v22.291c0 9.703 6.589 12.198 11.102 12.198 4.398 0 11.088-2.495 11.088-12.198v-11.088Zm-.187-62.548h27.928V147.2h-27.986s-.014-3.042-.014-3.605c-10.828 6.777-23.055 6.777-32.6 2.365-2.552-1.211-19.35-9.271-19.35-31.072 0-16.523 15.572-34.575 35.989-32.773 6.719.591 11.491 3.042 16.033 5.609V53.047ZM290.822 81.711c10.597-.302 32.052 6.618 31.908 31.404-.029 4.426-.014 34.085-.014 34.085H294.6v-41.122c0-5.464-5.22-11.52-12.948-11.52-7.714 0-13.438 6.056-13.438 11.52 0 2.668.029 41.122.029 41.122h-28.102l-.029-62.605 28.131-.029s-.029 5.032 0 6.59c5.421-5.163 13.235-9.185 22.579-9.445Zm230.09 0c10.584-.302 32.067 6.618 31.923 31.404-.029 4.426 0 34.085 0 34.085H524.69v-41.122c0-5.464-5.219-11.52-12.948-11.52-7.714 0-13.423 6.056-13.423 11.52 0 2.668.028 41.122.028 41.122h-28.101V84.595l28.102-.029s-.029 5.032 0 6.59c5.406-5.163 13.207-9.185 22.564-9.445Zm-89.077 43.587s.014.289.014 3.807c0 11.448-7.527 14-11.708 14-4.167 0-11.852-2.552-11.852-14 0-3.432.029-12.919.029-12.919s53.334.029 53.334-.029c0-19.407-18.744-35.484-41.77-35.484-23.027 0-41.684 15.716-41.684 35.152 0 19.437 18.657 35.138 41.684 35.138 19.104 0 35.253-10.9 40.169-25.693l-28.216.028Zm-23.517-18.888c-.058-5.479.058-9.141 1.86-12.27 2.206-3.864 6.272-5.695 9.964-5.724 3.676.029 7.742 1.86 9.934 5.724 1.802 3.129 1.903 6.791 1.86 12.27h-23.618Zm331.295-43.025c2.754 0 5.219-.173 5.219-3.49 0-2.652-2.408-3.128-4.671-3.128h-4.412v6.618h3.864Zm-3.864 12.054h-3.244V54.013h8.132c5.075 0 7.584 1.86 7.584 6.1 0 3.834-2.408 5.493-5.551 5.897l6.084 9.43h-3.633l-5.667-9.3h-3.705v9.3Z"/><path fill="#ED1C24" d="M739.656 80.226c8.421 0 15.053-6.59 15.053-15.543 0-8.81-6.632-15.428-15.053-15.428-8.492 0-15.139 6.618-15.139 15.428 0 8.954 6.647 15.543 15.139 15.543Zm-18.859-15.543c0-10.67 8.637-18.528 18.859-18.528 10.136 0 18.788 7.858 18.788 18.528 0 10.756-8.652 18.643-18.788 18.643-10.222 0-18.859-7.887-18.859-18.643Z"/></svg>