<svg xmlns="http://www.w3.org/2000/svg" width="924" height="308" fill="none"><path fill="#9147FE" d="M906.827 218.168h-64.806v-80.804H825.82v80.804h-64.806V16.201h64.806v56.527h48.604l32.403 32.322v113.118Zm-161.933-80.804h-64.806v16.201h64.806v64.644h-97.161l-32.403-32.322V105.05l32.403-32.322h97.16l.001 64.636Zm-145.741 0h-56.705v16.202h56.705v64.643h-89.059l-32.403-32.321V16.201h64.806v56.527h56.705l-.049 64.636ZM461.514 56.567h-64.806V16.201h64.806v40.366Zm0 161.601h-64.806V72.728h64.806v145.44Zm-81.007.001h-194.28l-32.403-32.322V72.728h64.806v80.797h16.202V72.728h64.806v80.797h16.201V72.728h64.806l-.138 145.441Zm-242.86-80.805h-56.64v16.201h56.705v64.644H48.604l-32.403-32.322V16.201h64.806v56.527h56.705l-.065 64.636Zm744.894-80.797h-40.504V0h-88.872L712.28 56.567h-72.639l-24.302 24.238V56.567h-56.705V0H380.547v56.567H129.952L89.108 0H0v193.931l113.353 113.086h113.354v-32.321l32.403 32.321h218.597v-32.321l32.403 32.321h105.237v-32.321l32.403 32.321h202.421l72.906-72.728V96.966l-40.536-40.399Z"/><path fill="#fff" d="M761.087 218.168h64.773v-80.804h16.193v80.804h64.774V105.05L874.44 72.728h-48.58V16.17h-64.773v201.999Zm-283.38-32.322 32.379 32.322h89.067v-64.644h-56.672v-16.16h56.672V72.728h-56.672V16.17h-64.773l-.001 169.677Zm137.64.001 32.386 32.322h97.16v-64.645H680.12v-16.16h64.773V72.728h-97.159l-32.387 32.322v80.797ZM396.741 16.169h64.773v40.398h-64.773V16.17ZM137.647 72.73h-56.68v-56.56H16.192v169.678l32.387 32.322h89.067v-64.645h-56.68v-16.16h56.68V72.728Zm16.194 113.118 32.378 32.322h194.328V72.729h-64.773v80.796h-16.202V72.728h-64.765v80.797h-16.193V72.728h-64.773v113.119Zm242.9-113.119h64.773V218.17h-64.773V72.729Z"/></svg>